<svg width="164" height="164" viewBox="0 0 164 164" xmlns="http://www.w3.org/2000/svg">
<path fill-rule="evenodd" clip-rule="evenodd" d="M80.6038 161.988C124.78 162.759 161.217 127.572 161.988 83.3962C162.759 39.2201 127.572 2.78329 83.3962 2.01219C39.2202 1.24109 2.78329 36.4278 2.01219 80.6038C1.2411 124.78 36.4278 161.217 80.6038 161.988ZM93.9148 44.0135L93.6751 57.7469L92.8849 103.016C92.8626 104.294 92.231 105.484 91.1854 106.219L70.3047 120.893C69.3546 121.54 68.0699 120.847 68.09 119.697L68.2233 112.061L69.1211 60.6262C69.1434 59.3484 69.7749 58.1582 70.8205 57.4233L91.6434 42.7897C92.6166 42.1241 93.9354 42.8346 93.9148 44.0135ZM102.37 112.155C101.351 111.384 100.761 110.172 100.783 108.894L101.808 50.1831C101.831 48.8748 103.329 48.1456 104.373 48.9349L120.724 61.3001C121.743 62.0709 122.333 63.2825 122.311 64.5603L121.368 118.552C121.342 120.057 120.473 121.42 119.119 122.079C117.765 122.738 116.157 122.581 114.956 121.673L102.37 112.155ZM59.7797 50.8876L49.1806 42.1502C47.9957 41.1734 46.3562 40.9612 44.9616 41.6041C43.5671 42.2469 42.6636 43.6314 42.6368 45.1668L41.6944 99.1586C41.6731 100.377 42.2088 101.539 43.1495 102.315L57.588 114.217C58.6216 115.069 60.1821 114.35 60.2055 113.011L61.2347 54.0439C61.256 52.825 60.7203 51.663 59.7797 50.8876Z" fill="white"/>
</svg>
