<svg width="32" height="32" viewBox="0 0 32 32" fill="none" xmlns="http://www.w3.org/2000/svg">
<path fill-rule="evenodd" clip-rule="evenodd" d="M4.08 14.43C4.77 14.43 8.22 14.43 14.43 14.43C14.43 8.22 14.43 4.77 14.43 4.08C14.43 3.21 15.13 2.51 16 2.51C16.87 2.51 17.57 3.21 17.57 4.08C17.57 4.77 17.57 8.22 17.57 14.43C23.78 14.43 27.23 14.43 27.92 14.43C28.79 14.43 29.49 15.13 29.49 16C29.49 16.87 28.79 17.57 27.92 17.57C27.23 17.57 23.78 17.57 17.57 17.57C17.57 23.78 17.57 27.23 17.57 27.92C17.57 28.79 16.87 29.49 16 29.49C15.13 29.49 14.43 28.79 14.43 27.92C14.43 27.23 14.43 23.78 14.43 17.57C8.22 17.57 4.77 17.57 4.08 17.57C3.21 17.57 2.51 16.87 2.51 16C2.51 15.13 3.21 14.43 4.08 14.43Z" fill="red"/>
</svg>
